<svg xmlns="http://www.w3.org/2000/svg" xmlns:xlink="http://www.w3.org/1999/xlink" version="1.1" id="Layer_1" x="0px" y="0px" enable-background="new 0 0 1024 1024" xml:space="preserve" viewBox="97.13 384.43 832.68 200.01" transform="matrix(1, 0, 0, 1, 0, 0)">
<path fill="#63c78f" opacity="1.000000" stroke="none" d=" M515.000000,385.926453   C523.665649,385.919159 531.836060,386.076538 539.994873,385.836548   C544.197571,385.712891 545.768372,387.342224 545.347412,391.400177   C545.159119,393.215027 545.286255,395.062897 545.276367,396.895844   C545.267212,398.600067 544.602539,399.908844 542.792419,400.074524   C529.977295,401.247253 526.547974,410.579071 525.515991,421.024261   C523.646790,439.942657 524.287292,458.965027 524.393860,477.952728   C524.396423,478.413269 524.631042,478.872498 524.759705,479.340393   C526.326172,479.587006 526.823792,478.321686 527.465881,477.483002   C540.627869,460.290405 553.805542,443.109222 566.849609,425.827301   C569.856628,421.843445 572.357483,417.458862 574.070740,412.739288   C576.242493,406.756897 574.930298,403.653595 569.508545,400.300751   C564.841064,397.414368 567.344421,392.771484 567.263611,388.948273   C567.185730,385.262939 570.607056,385.959015 572.972473,385.951080   C591.969910,385.887238 610.968323,385.982819 629.964355,385.807129   C634.156006,385.768372 635.453369,387.303864 635.390747,391.362793   C635.269165,399.249390 635.454956,399.257874 627.994751,401.276611   C611.485291,405.744110 599.153137,416.048340 588.908447,429.259369   C581.558472,438.737488 574.293152,448.282196 566.850952,457.687164   C565.088196,459.914886 564.505676,461.617371 566.196228,464.274200   C584.171692,492.524353 601.218994,521.362427 619.916931,549.154907   C623.889832,555.060059 628.338013,560.567139 635.330811,564.998230   C634.664917,560.487122 634.008850,556.996155 633.652222,553.474792   C631.015686,527.442139 645.591614,513.792786 662.580017,506.209747   C672.493225,501.784821 682.865784,498.711914 693.256348,495.694489   C700.845337,493.490662 700.878052,493.535522 700.731689,485.462738   C700.650391,480.978271 700.844177,476.497681 699.714172,472.056580   C697.859070,464.765503 694.074707,460.878906 687.866516,460.352386   C680.256653,459.706940 674.692200,462.857056 671.632080,469.401825   C669.170471,474.666351 669.257751,480.420471 668.440857,485.976440   C667.924438,489.489319 666.191467,491.355499 663.038818,492.318176   C657.977234,493.863739 652.793945,493.914368 647.737305,492.738464   C639.395569,490.798584 636.125427,484.279297 637.941406,474.341522   C639.828613,464.014282 645.516907,456.162354 654.253113,450.838013   C671.995422,440.024811 690.977539,438.334961 710.298645,445.681305   C725.769348,451.563660 732.971375,464.024750 734.314941,480.082886   C736.207336,502.702087 734.704773,525.378052 735.247375,548.021790   C735.299255,550.187256 735.173645,552.375366 735.442627,554.513672   C736.083130,559.605835 739.407959,562.117554 744.456421,561.492065   C746.011475,561.299438 747.975281,560.001160 748.757324,562.294434   C749.520813,564.532898 750.971802,566.757263 749.475769,569.409668   C742.768005,581.302124 722.719421,587.238098 710.585999,580.873352   C705.065613,577.977539 702.917175,572.820679 701.200989,566.624634   C683.763855,581.654175 665.398376,590.381104 642.967712,576.402527   C642.156616,578.149963 640.513855,579.479309 638.131348,579.969910   C628.397644,581.974243 618.548157,582.115540 608.823059,580.699768   C595.164185,578.711304 584.275940,571.743103 576.284180,560.388123   C562.657654,541.027344 551.059082,520.376221 538.165833,500.549469   C537.095764,498.903992 536.461487,496.898926 533.972595,495.485413   C529.621338,500.920166 523.700134,504.960114 524.165771,513.684692   C524.847412,526.454529 523.758240,539.328125 526.262817,551.994568   C528.001404,560.787415 532.476501,567.016602 542.242676,567.758301   C544.261108,567.911682 545.257935,568.939453 545.259705,570.956177   C545.260132,571.455811 545.283142,571.955627 545.302307,572.455139   C545.641846,581.315186 545.642090,581.333374 536.968689,581.337402   C515.971313,581.347229 494.973846,581.364258 473.976624,581.304016   C471.356018,581.296509 468.122437,582.303528 467.756958,577.712585   C467.148224,570.066650 467.662567,568.474487 472.529938,567.483887   C479.510773,566.063232 483.649017,561.672241 485.466888,555.064514   C486.787262,550.265076 487.682556,545.354614 487.678650,540.315674   C487.649933,503.154175 487.667908,465.992676 487.633820,428.831177   C487.629089,423.643036 486.669098,418.550659 485.174072,413.613525   C482.712524,405.484497 476.963867,401.056549 468.355530,400.282837   C463.041962,399.805237 462.919556,399.239716 462.977356,390.978821   C463.008881,386.469421 465.340637,385.873627 469.008179,385.896820   C484.171570,385.992889 499.335968,385.930603 515.000000,385.926453  M686.738220,558.569885   C696.788757,554.922180 700.585876,549.753052 700.711487,539.393555   C700.800049,532.088501 700.850891,524.782104 700.806213,517.476929   C700.794617,515.580017 701.432190,513.478577 699.432739,511.436829   C693.716858,512.975159 688.067444,515.137634 682.614319,517.941650   C674.938965,521.888306 670.675415,527.994019 669.470459,536.602905   C667.639587,549.683289 674.754883,559.455627 686.738220,558.569885  z"/>
<path fill="#63c78f" opacity="1.000000" stroke="none" d=" M193.827881,384.432251   C207.488678,384.525513 220.448608,386.265961 232.999542,390.571960   C239.032547,392.641815 244.500015,395.795990 249.775879,399.337006   C252.206757,400.968536 253.304062,403.039062 253.281723,406.022064   C253.183090,419.184906 253.156479,432.349518 253.271683,445.511993   C253.303772,449.176453 251.901306,450.409393 248.258179,450.466034   C237.531021,450.632843 237.560455,450.755096 234.248032,440.746674   C232.366348,435.061279 230.616440,429.331635 227.921051,423.938751   C216.124695,400.336945 185.671814,394.763489 166.240570,412.711670   C155.090515,423.010712 149.435043,436.295837 147.017899,450.826538   C142.330017,479.007904 141.767365,507.196838 151.427261,534.587036   C156.873886,550.030701 167.139572,561.378296 183.792938,565.004639   C192.985443,567.006287 202.332779,566.202759 211.370117,563.172180   C213.474960,562.466370 214.775650,561.331482 214.714355,558.877441   C214.336365,543.741272 215.705017,528.563904 213.653656,513.467834   C212.721756,506.610168 209.368973,502.674225 202.467300,501.240326   C195.692795,499.832825 198.313889,494.731476 198.056656,490.867767   C197.769043,486.547668 201.092560,486.913483 203.959641,486.913544   C222.455322,486.913940 240.952927,487.057587 259.445374,486.812744   C264.277405,486.748779 265.538544,488.634155 265.278351,493.004517   C265.017456,497.385559 266.088837,501.704193 260.285522,504.081757   C256.824890,505.499481 256.533264,509.990845 256.294586,513.763733   C255.357803,528.572632 255.024612,543.399902 255.453125,558.221252   C255.593018,563.059448 253.701874,565.843567 249.835068,568.325928   C237.105148,576.497986 223.067520,580.770630 208.269073,582.961182   C190.224625,585.632385 172.352539,584.898010 155.026474,578.988403   C131.958908,571.120483 115.436752,555.661499 106.508141,533.086731   C93.239967,499.540039 93.652618,465.923828 110.330566,433.604309   C123.501938,408.080078 144.672363,392.042084 173.040039,386.074310   C179.735352,384.665741 186.570267,384.520538 193.827881,384.432251  z"/>
<path fill="#63c78f" opacity="1.000000" stroke="none" d=" M433.274384,580.562866   C393.187897,592.119263 359.372040,566.770935 352.777069,528.559448   C348.855072,505.835052 352.279694,484.318817 366.951721,465.780548   C396.715271,428.173950 452.010681,434.877777 470.737152,479.149323   C483.279358,508.800507 480.249390,537.802490 459.019073,563.374878   C452.327484,571.434998 443.752655,577.188965 433.274384,580.562866  M430.869873,468.665588   C421.223969,456.433289 407.290344,456.828827 398.491760,469.638580   C395.446442,474.072174 393.576599,479.049774 392.289337,484.248444   C388.315826,500.295593 388.425293,516.543823 390.553925,532.761902   C391.746948,541.851257 394.444733,550.625793 399.906403,558.272827   C408.200958,569.886169 422.115540,569.816711 430.246552,558.061157   C433.201691,553.788696 435.153900,549.046875 436.712708,544.085815   C439.539154,535.090210 440.108032,525.755676 440.365051,516.507019   C440.819061,500.169128 440.251984,483.851929 430.869873,468.665588  z"/>
<path fill="#63c78f" opacity="1.000000" stroke="none" d=" M338.659790,441.599731   C350.388855,440.880585 357.701080,445.295258 360.548309,454.540466   C363.341797,463.611176 358.783966,476.142975 350.937927,480.964447   C344.376587,484.996368 336.268097,483.554688 330.086609,477.256927   C323.790070,470.841949 321.022552,471.194977 316.373718,479.015656   C313.290955,484.201782 312.507599,490.053619 312.427582,495.830719   C312.173859,514.150940 312.224213,532.477417 312.347412,550.800110   C312.420715,561.707031 315.596588,565.678772 326.053314,568.508240   C331.980530,570.112061 328.641205,574.741150 329.180634,577.990601   C329.763245,581.499939 326.881775,581.334900 324.506287,581.335449   C304.849579,581.340149 285.192902,581.351746 265.536194,581.332092   C263.404663,581.329956 260.563843,581.594482 260.919678,578.393127   C261.295410,575.013000 258.222504,569.807312 263.643250,568.640442   C271.500702,566.949036 273.984283,561.362854 275.419800,554.846497   C276.269135,550.991089 276.753235,547.007812 276.724609,542.966003   C276.607727,526.475342 276.753845,509.982758 276.621521,493.492310   C276.589630,489.523254 276.159515,485.500732 275.388275,481.606659   C274.014160,474.668579 269.632751,470.115936 263.023621,467.750092   C261.194946,467.095520 259.692749,466.514740 259.654144,464.123871   C259.617584,461.859192 260.292358,460.405884 262.453247,459.413666   C274.707672,453.786835 286.899414,448.023438 299.151123,442.390625   C302.158722,441.007874 305.377319,441.653839 308.503021,442.078003   C310.844879,442.395782 311.755707,443.622437 311.601196,446.207642   C311.315674,450.985962 311.519531,455.793549 311.519531,462.066650   C319.413422,452.655792 325.919708,443.062775 338.659790,441.599731  z"/>
<path fill="#63c78f" opacity="1.000000" stroke="none" d=" M830.084839,441.628296   C839.129639,441.155579 845.910156,444.042450 849.833374,452.112762   C854.688049,462.099335 847.576904,480.008698 837.212952,483.976593   C830.119690,486.692261 822.430420,484.200226 818.522888,476.779572   C815.526489,471.089294 811.926636,471.200653 807.883850,476.185089   C802.762878,482.498901 801.581970,490.140533 801.446655,497.807831   C801.146667,514.802429 801.270325,531.806763 801.423401,548.805298   C801.452881,552.083435 802.121216,555.430786 802.990479,558.610657   C804.764954,565.102966 806.547180,566.266357 817.627869,569.340820   C817.788269,569.763184 818.065491,570.211060 818.122864,570.685608   C819.369385,580.996094 819.031799,581.366638 808.705750,581.361633   C791.205750,581.353088 773.705688,581.384216 756.205933,581.314209   C753.927002,581.305115 750.389038,582.214050 750.830627,578.210022   C751.217590,574.701721 747.805847,569.631836 754.575745,568.164124   C763.760193,566.173035 764.784668,558.146973 765.474609,551.017456   C767.548462,529.588318 766.989075,508.084930 765.544312,486.629028   C764.932251,477.539856 761.421631,470.128021 751.612244,467.546295   C749.743286,467.054413 748.867310,465.907471 748.846497,463.944672   C748.827087,462.104614 749.358154,460.656982 751.095337,459.860504   C764.115356,453.890900 777.100220,447.840546 790.212097,442.079529   C792.026428,441.282318 794.484436,441.818848 796.632629,441.942719   C800.047913,442.139648 801.643372,443.834015 801.290283,447.474030   C800.810730,452.416351 800.659485,457.390533 800.265747,464.078003   C808.782043,453.309357 815.415039,442.181274 830.084839,441.628296  z"/>
<path fill="#63c78f" opacity="1.000000" stroke="none" d=" M897.327148,420.007782   C897.330505,427.005157 897.450623,433.507416 897.288147,440.002594   C897.202332,443.436127 898.471924,444.784332 901.948792,444.712341   C909.444641,444.557159 916.948181,444.779419 924.444397,444.631226   C927.880981,444.563324 929.218567,445.874481 929.167236,449.311554   C928.935059,464.850739 930.899048,461.957794 916.716125,462.212616   C911.551636,462.305420 906.383057,462.299896 901.218506,462.211792   C898.493286,462.165283 897.307678,463.226318 897.314331,466.032471   C897.375671,492.029480 897.337708,518.026794 897.438232,544.023560   C897.447083,546.310547 898.092712,548.631775 898.686890,550.872375   C900.123535,556.290100 903.844177,558.624023 909.556152,558.086304   C915.648071,557.512756 920.930359,554.616699 926.266174,552.161072   C930.903687,558.513184 931.054443,560.188782 926.378296,565.311951   C917.331909,575.223389 906.671326,581.935120 892.691650,582.562622   C877.257141,583.255310 866.442322,574.941589 863.712585,559.623718   C862.394470,552.226990 862.051636,544.743713 862.005371,537.261353   C861.864258,514.431396 861.823792,491.600708 861.818665,468.770294   C861.817810,464.913940 861.562134,461.586731 856.338684,462.250305   C856.027527,462.289795 855.554871,462.244904 855.386475,462.045654   C852.070190,458.120697 853.176270,452.948608 851.618530,448.511993   C850.830322,446.267029 852.403015,445.173187 854.114075,444.263489   C868.764282,436.474487 878.275269,424.080536 884.917786,409.303436   C887.190735,404.246948 891.192261,405.738739 894.720093,406.030640   C898.529419,406.345825 897.085938,409.775146 897.275940,412.014374   C897.486511,414.496368 897.325562,417.009918 897.327148,420.007782  z"/>
</svg>